<svg width="258" height="80" viewBox="0 0 258 80" fill="none" xmlns="http://www.w3.org/2000/svg">
<g clip-path="url(#clip0_7917_2334)">
<path d="M40.2683 0.000220899C48.1679 0.0532051 55.8749 2.44412 62.4175 6.87146C68.9601 11.2988 74.0452 17.5643 77.0316 24.8779C80.018 32.1914 80.772 40.2255 79.1984 47.967C77.6248 55.7085 73.7942 62.8107 68.1896 68.378C62.5849 73.9452 55.4573 77.7283 47.7055 79.2501C39.9536 80.7719 31.9248 79.9643 24.6313 76.929C17.3379 73.8938 11.1065 68.7669 6.72303 62.1949C2.33952 55.6229 0.000177686 47.9 0 40.0002C0.035862 29.3561 4.29848 19.1621 11.8502 11.6607C19.4019 4.15931 29.6241 -0.0350692 40.2683 0.000220899Z" fill="#2656D7"/>
<path d="M45.0402 63.2258L40.4534 65.8747L30.5999 60.1939L35.0747 57.6101L35.1867 57.5449L35.3586 57.6439L45.0402 63.2258Z" fill="white"/>
<path d="M62.6477 27.4374V32.7692L52.9479 27.1691L50.3172 25.6506L47.6865 27.1691L35.3586 34.2903L32.7278 35.8088V38.9527L27.9847 36.2151L25.354 34.6966L22.7233 36.2151L18.2615 38.7886V27.4374L40.4533 14.625L62.6477 27.4374Z" fill="white"/>
<path d="M62.6477 38.836V53.0836L50.3198 60.1944H50.3042L37.9893 53.0836V38.836L50.3198 31.7148L62.6477 38.836Z" fill="white"/>
<path d="M32.4439 44.8576V53.0441L25.3514 57.1412L18.2615 53.0467V44.8602L25.354 40.7656L32.4439 44.8576Z" fill="white"/>
<path d="M111.618 24.2884V38.0202H136.717V47.6575H111.618V66.5883H99.0688V14.625H140.046V24.2884H111.618Z" fill="white"/>
<path d="M145.544 14.625H157.625V66.5831H145.544V14.625Z" fill="white"/>
<path d="M209.028 24.9023V66.5771H197.567V61.6205C195.941 63.4276 193.943 64.8617 191.71 65.8243C189.477 66.7868 187.063 67.2551 184.632 67.1971C174.175 67.1971 166.814 61.3105 166.814 48.4434V24.9023H178.899V46.6774C178.899 53.6501 181.997 56.7497 187.341 56.7497C192.918 56.7497 196.945 53.1865 196.945 45.5131V24.9023H209.028Z" fill="white"/>
<path d="M243.894 66.5824L234.754 53.796L225.317 66.5824H212.133L228.164 45.5835L212.68 24.9023H226.224L235.08 37.0662L244.144 24.9023H257.003L241.508 45.2735L257.605 66.5824H243.894Z" fill="white"/>
</g>
<defs>
<clipPath id="clip0_7917_2334">
<rect width="257.602" height="80" fill="white"/>
</clipPath>
</defs>
</svg>